<svg width="709" height="88" viewBox="0 0 709 88" fill="none" xmlns="http://www.w3.org/2000/svg">
<path d="M48.8606 83.9354C48.8606 85.3118 48.1724 85.9999 46.7961 85.9999H2.30573C0.929383 85.9999 0.241211 85.3118 0.241211 83.9354V15.5483C0.241211 14.172 0.929383 13.4838 2.30573 13.4838H16.7573C18.1337 13.4838 18.8219 14.172 18.8219 15.5483V68.2451H46.7961C48.1724 68.2451 48.8606 68.9333 48.8606 70.3096V83.9354Z" fill="white"/>
<path d="M98.4904 25.6128C98.4904 24.2365 99.1786 23.5483 100.555 23.5483H113.974C115.351 23.5483 116.039 24.2365 116.039 25.6128V83.9354C116.039 85.3118 115.351 85.9999 113.974 85.9999H103.703C102.568 85.9999 101.776 85.4666 101.329 84.3999L99.1098 79.0838C96.7012 81.3892 93.7248 83.2988 90.1807 84.8128C86.6366 86.2924 83.2474 87.0322 80.013 87.0322C74.9549 87.0322 70.5162 85.8795 66.6969 83.5741C62.8775 81.2687 59.9184 78.0171 57.8194 73.8193C55.7205 69.587 54.6711 64.701 54.6711 59.1612V25.6128C54.6711 24.2365 55.3592 23.5483 56.7356 23.5483H70.1549C71.5313 23.5483 72.2194 24.2365 72.2194 25.6128V57.1999C72.2194 59.9526 72.7184 62.3784 73.7162 64.4773C74.7485 66.5419 76.1764 68.1419 78.0001 69.2773C79.8581 70.4128 82.0087 70.9806 84.4517 70.9806C87.0323 70.9806 89.3893 70.3784 91.5227 69.1741C93.6904 67.9354 95.3936 66.3182 96.6323 64.3225C97.871 62.3268 98.4904 60.2107 98.4904 57.9741V25.6128Z" fill="white"/>
<path d="M158.537 87.5483C152.413 87.5483 146.89 86.1032 141.97 83.2128C137.084 80.2881 133.247 76.3483 130.46 71.3935C127.707 66.4386 126.331 61.0193 126.331 55.1354C126.331 49.1827 127.707 43.729 130.46 38.7741C133.213 33.7849 137.049 29.8279 141.97 26.9032C146.89 23.9784 152.447 22.5161 158.641 22.5161C162.701 22.5161 166.503 23.1182 170.047 24.3225C173.626 25.5268 176.826 27.23 179.647 29.4322C180.232 29.9139 180.524 30.43 180.524 30.9806C180.524 31.3935 180.37 31.8408 180.06 32.3225L173.505 41.6644C173.058 42.3182 172.542 42.6451 171.957 42.6451C171.578 42.6451 171.131 42.473 170.615 42.129C168.86 40.9247 167.105 40.0128 165.35 39.3935C163.595 38.7741 161.583 38.4644 159.312 38.4644C156.524 38.4644 153.944 39.187 151.57 40.6322C149.195 42.0773 147.303 44.073 145.892 46.6193C144.481 49.1311 143.776 51.9698 143.776 55.1354C143.776 58.2322 144.481 61.0365 145.892 63.5483C147.337 66.0601 149.247 68.0386 151.621 69.4838C154.03 70.8945 156.611 71.5999 159.363 71.5999C161.6 71.5999 163.595 71.3074 165.35 70.7225C167.14 70.1031 168.894 69.1913 170.615 67.987C171.131 67.6429 171.578 67.4709 171.957 67.4709C172.542 67.4709 173.058 67.7978 173.505 68.4515L180.06 77.7935C180.404 78.2752 180.576 78.7397 180.576 79.187C180.576 79.6343 180.37 80.0472 179.957 80.4257C177.101 82.6967 173.866 84.4515 170.254 85.6902C166.641 86.929 162.735 87.5483 158.537 87.5483Z" fill="white"/>
<path d="M216.1 87.5483C209.975 87.5483 204.453 86.1032 199.532 83.2128C194.646 80.2881 190.81 76.3483 188.022 71.3935C185.27 66.4386 183.893 61.0193 183.893 55.1354C183.893 49.1827 185.27 43.729 188.022 38.7741C190.775 33.7849 194.612 29.8279 199.532 26.9032C204.453 23.9784 210.01 22.5161 216.203 22.5161C220.263 22.5161 224.065 23.1182 227.61 24.3225C231.188 25.5268 234.388 27.23 237.21 29.4322C237.795 29.9139 238.087 30.43 238.087 30.9806C238.087 31.3935 237.932 31.8408 237.622 32.3225L231.068 41.6644C230.62 42.3182 230.104 42.6451 229.519 42.6451C229.141 42.6451 228.693 42.473 228.177 42.129C226.422 40.9247 224.668 40.0128 222.913 39.3935C221.158 38.7741 219.145 38.4644 216.874 38.4644C214.087 38.4644 211.506 39.187 209.132 40.6322C206.758 42.0773 204.865 44.073 203.455 46.6193C202.044 49.1311 201.339 51.9698 201.339 55.1354C201.339 58.2322 202.044 61.0365 203.455 63.5483C204.9 66.0601 206.81 68.0386 209.184 69.4838C211.592 70.8945 214.173 71.5999 216.926 71.5999C219.162 71.5999 221.158 71.3074 222.913 70.7225C224.702 70.1031 226.457 69.1913 228.177 67.987C228.693 67.6429 229.141 67.4709 229.519 67.4709C230.104 67.4709 230.62 67.7978 231.068 68.4515L237.622 77.7935C237.967 78.2752 238.139 78.7397 238.139 79.187C238.139 79.6343 237.932 80.0472 237.519 80.4257C234.663 82.6967 231.429 84.4515 227.816 85.6902C224.203 86.929 220.298 87.5483 216.1 87.5483Z" fill="white"/>
<path d="M284.925 22.5161C289.983 22.5161 294.421 23.6687 298.241 25.9741C302.06 28.2795 305.019 31.5483 307.118 35.7806C309.217 39.9784 310.267 44.8472 310.267 50.387V83.9354C310.267 85.3118 309.578 85.9999 308.202 85.9999H294.783C293.406 85.9999 292.718 85.3118 292.718 83.9354V52.3483C292.718 49.5956 292.202 47.187 291.17 45.1225C290.172 43.0236 288.744 41.4064 286.886 40.2709C285.062 39.1354 282.929 38.5677 280.486 38.5677C277.905 38.5677 275.531 39.187 273.363 40.4257C271.23 41.63 269.544 43.23 268.305 45.2257C267.067 47.2214 266.447 49.3376 266.447 51.5741V83.9354C266.447 85.3118 265.759 85.9999 264.383 85.9999H251.118C249.742 85.9999 249.054 85.3118 249.054 83.9354V7.39347C249.054 6.01713 249.742 5.32895 251.118 5.32895H264.383C265.759 5.32895 266.447 6.01713 266.447 7.39347V29.8967C268.856 27.729 271.763 25.9569 275.17 24.5806C278.576 23.2042 281.828 22.5161 284.925 22.5161Z" fill="white"/>
<path d="M351.691 87.5483C345.463 87.5483 339.871 86.0859 334.917 83.1612C329.962 80.2365 326.091 76.2967 323.304 71.3419C320.551 66.387 319.175 60.9849 319.175 55.1354C319.175 49.2171 320.482 43.7806 323.097 38.8257C325.747 33.8365 329.428 29.8795 334.142 26.9548C338.856 23.9956 344.207 22.5161 350.194 22.5161C356.663 22.5161 362.271 23.9096 367.02 26.6967C371.768 29.4838 375.381 33.3376 377.859 38.258C380.37 43.1784 381.626 48.7698 381.626 55.0322C381.626 56.4085 381.557 57.7677 381.42 59.1096C381.282 60.3827 380.56 61.0193 379.252 61.0193H337.188C338.323 64.4601 340.267 67.144 343.02 69.0709C345.773 70.9978 348.904 71.9612 352.413 71.9612C354.65 71.9612 356.663 71.6515 358.452 71.0322C360.276 70.3784 362.048 69.4494 363.768 68.2451C364.216 67.901 364.663 67.729 365.11 67.729C365.661 67.729 366.16 68.0386 366.607 68.658L372.955 77.6902C373.265 78.1376 373.42 78.5677 373.42 78.9806C373.42 79.5655 373.145 80.0816 372.594 80.529C369.738 82.7655 366.538 84.5031 362.994 85.7419C359.484 86.9462 355.717 87.5483 351.691 87.5483ZM364.284 48.1161C363.321 44.7096 361.669 42.0945 359.33 40.2709C356.99 38.4472 354.134 37.5354 350.762 37.5354C347.459 37.5354 344.585 38.4644 342.142 40.3225C339.734 42.1806 338.031 44.7784 337.033 48.1161H364.284Z" fill="white"/>
<path d="M413.4 87.5483C408.514 87.5483 404.006 86.7397 399.877 85.1225C395.782 83.4709 391.946 81.0623 388.367 77.8967C387.817 77.4494 387.542 76.9505 387.542 76.3999C387.542 75.9526 387.731 75.4881 388.109 75.0064L395.077 66.2838C395.559 65.6989 396.058 65.4064 396.574 65.4064C396.952 65.4064 397.417 65.5956 397.967 65.9741C400.479 67.8666 402.957 69.329 405.4 70.3612C407.877 71.3935 410.372 71.9096 412.884 71.9096C414.604 71.9096 415.98 71.5827 417.013 70.929C418.045 70.2408 418.561 69.2773 418.561 68.0386C418.561 67.2128 418.251 66.4558 417.632 65.7677C417.047 65.0795 416.015 64.3913 414.535 63.7032C413.056 62.9806 410.957 62.1548 408.238 61.2257C403.043 59.4709 398.759 57.0795 395.387 54.0515C392.015 51.0236 390.329 46.8601 390.329 41.5612C390.329 38.1892 391.155 35.058 392.806 32.1677C394.492 29.2773 397.038 26.9548 400.445 25.1999C403.886 23.4107 408.101 22.5161 413.09 22.5161C416.531 22.5161 420.058 23.2042 423.671 24.5806C427.318 25.9225 430.535 27.9354 433.322 30.6193C433.804 31.101 434.045 31.5827 434.045 32.0644C434.045 32.4773 433.804 32.9591 433.322 33.5096L425.167 41.9225C424.72 42.4042 424.238 42.6451 423.722 42.6451C423.275 42.6451 422.793 42.4386 422.277 42.0257C420.866 40.8902 419.301 39.9612 417.58 39.2386C415.894 38.4816 414.208 38.1031 412.522 38.1031C410.767 38.1031 409.425 38.43 408.496 39.0838C407.602 39.7376 407.155 40.6322 407.155 41.7677C407.155 42.5591 407.481 43.2816 408.135 43.9354C408.823 44.5548 409.907 45.1913 411.387 45.8451C412.866 46.4644 414.931 47.2042 417.58 48.0644C423.258 49.8881 427.645 52.3311 430.742 55.3935C433.838 58.4558 435.387 62.6021 435.387 67.8322C435.387 71.2386 434.509 74.4558 432.755 77.4838C431.034 80.4773 428.505 82.9032 425.167 84.7612C421.864 86.6193 417.942 87.5483 413.4 87.5483Z" fill="white"/>
<path d="M447.712 16.8386C446.336 16.8386 445.647 16.1505 445.647 14.7741V2.64509C445.647 1.26874 446.336 0.580566 447.712 0.580566H461.389C462.766 0.580566 463.454 1.26874 463.454 2.64509V14.7741C463.454 16.1505 462.766 16.8386 461.389 16.8386H447.712ZM463.299 83.9354C463.299 85.3118 462.611 85.9999 461.235 85.9999H447.815C446.439 85.9999 445.751 85.3118 445.751 83.9354V25.6128C445.751 24.2365 446.439 23.5483 447.815 23.5483H461.235C462.611 23.5483 463.299 24.2365 463.299 25.6128V83.9354Z" fill="white"/>
<path d="M525.15 87.5483C520.264 87.5483 515.756 86.7397 511.627 85.1225C507.532 83.4709 503.696 81.0623 500.117 77.8967C499.567 77.4494 499.292 76.9505 499.292 76.3999C499.292 75.9526 499.481 75.4881 499.859 75.0064L506.827 66.2838C507.309 65.6989 507.808 65.4064 508.324 65.4064C508.702 65.4064 509.167 65.5956 509.717 65.9741C512.229 67.8666 514.707 69.329 517.15 70.3612C519.627 71.3935 522.122 71.9096 524.634 71.9096C526.354 71.9096 527.73 71.5827 528.763 70.929C529.795 70.2408 530.311 69.2773 530.311 68.0386C530.311 67.2128 530.001 66.4558 529.382 65.7677C528.797 65.0795 527.765 64.3913 526.285 63.7032C524.806 62.9806 522.707 62.1548 519.988 61.2257C514.793 59.4709 510.509 57.0795 507.137 54.0515C503.765 51.0236 502.079 46.8601 502.079 41.5612C502.079 38.1892 502.905 35.058 504.556 32.1677C506.242 29.2773 508.788 26.9548 512.195 25.1999C515.636 23.4107 519.851 22.5161 524.84 22.5161C528.281 22.5161 531.808 23.2042 535.421 24.5806C539.068 25.9225 542.285 27.9354 545.072 30.6193C545.554 31.101 545.795 31.5827 545.795 32.0644C545.795 32.4773 545.554 32.9591 545.072 33.5096L536.917 41.9225C536.47 42.4042 535.988 42.6451 535.472 42.6451C535.025 42.6451 534.543 42.4386 534.027 42.0257C532.616 40.8902 531.051 39.9612 529.33 39.2386C527.644 38.4816 525.958 38.1031 524.272 38.1031C522.517 38.1031 521.175 38.43 520.246 39.0838C519.352 39.7376 518.905 40.6322 518.905 41.7677C518.905 42.5591 519.231 43.2816 519.885 43.9354C520.573 44.5548 521.657 45.1913 523.137 45.8451C524.616 46.4644 526.681 47.2042 529.33 48.0644C535.008 49.8881 539.395 52.3311 542.492 55.3935C545.588 58.4558 547.137 62.6021 547.137 67.8322C547.137 71.2386 546.259 74.4558 544.505 77.4838C542.784 80.4773 540.255 82.9032 536.917 84.7612C533.614 86.6193 529.692 87.5483 525.15 87.5483Z" fill="white"/>
<path d="M571.591 83.9354C571.591 85.3118 570.903 85.9999 569.526 85.9999H555.849C554.473 85.9999 553.785 85.3118 553.785 83.9354V71.8064C553.785 70.43 554.473 69.7419 555.849 69.7419H569.526C570.903 69.7419 571.591 70.43 571.591 71.8064V83.9354Z" fill="white"/>
<path d="M615.409 22.5161C619.642 22.5161 623.822 23.7376 627.951 26.1806C628.674 26.6279 629.035 27.1784 629.035 27.8322C629.035 28.2107 628.932 28.6064 628.725 29.0193L622.79 40.1677C622.377 40.9247 621.844 41.3032 621.19 41.3032C620.777 41.3032 620.381 41.1827 620.003 40.9419C617.526 39.5655 615.151 38.8773 612.88 38.8773C610.713 38.8773 608.631 39.4967 606.635 40.7354C604.674 41.9741 603.074 43.815 601.835 46.258C600.596 48.6666 599.977 51.5741 599.977 54.9806V83.9354C599.977 85.3118 599.289 85.9999 597.913 85.9999H584.493C583.117 85.9999 582.429 85.3118 582.429 83.9354V25.6128C582.429 24.2365 583.117 23.5483 584.493 23.5483H594.764C595.9 23.5483 596.691 24.0816 597.138 25.1483L599.667 31.187C601.285 28.5032 603.452 26.387 606.171 24.8386C608.889 23.2902 611.969 22.5161 615.409 22.5161Z" fill="white"/>
<path d="M651.466 83.9354C651.466 85.3118 650.778 85.9999 649.401 85.9999H635.724C634.348 85.9999 633.66 85.3118 633.66 83.9354V71.8064C633.66 70.43 634.348 69.7419 635.724 69.7419H649.401C650.778 69.7419 651.466 70.43 651.466 71.8064V83.9354Z" fill="white"/>
<path d="M679.697 83.9354C679.697 85.3118 679.009 85.9999 677.633 85.9999H664.368C662.992 85.9999 662.304 85.3118 662.304 83.9354V7.39347C662.304 6.01713 662.992 5.32895 664.368 5.32895H677.633C679.009 5.32895 679.697 6.01713 679.697 7.39347V83.9354Z" fill="white"/>
<path d="M708.372 83.9354C708.372 85.3118 707.684 85.9999 706.308 85.9999H692.63C691.254 85.9999 690.566 85.3118 690.566 83.9354V71.8064C690.566 70.43 691.254 69.7419 692.63 69.7419H706.308C707.684 69.7419 708.372 70.43 708.372 71.8064V83.9354Z" fill="white"/>
</svg>
